<?xml version="1.0" encoding="UTF-8"?>
<svg id="Layer_1" xmlns="http://www.w3.org/2000/svg" viewBox="0 0 200 200">
  <path d="M198.47,82.8c-4.07-22.81-14.86-41.92-32.1-57.35-14.41-12.89-31.23-21.05-50.35-23.96-28.93-4.41-55.23,2.26-78.17,20.5C16.48,38.98,4.12,61.25.71,88.38c-.23,1.8-.47,3.59-.71,5.38v12.48c.51,3.72.89,7.46,1.56,11.15,4.15,22.84,15,41.99,32.36,57.39,15.03,13.32,32.61,21.28,52.52,24.13,2.43.34,4.87.6,7.31.91h12.5c3.66-.51,7.35-.85,10.97-1.53,30-5.64,52.93-21.6,68.8-47.56,8.05-13.17,12.48-27.59,13.66-42.99.04-.51.21-1,.32-1.5v-12.48c-.5-3.66-.89-7.33-1.53-10.96ZM124.88,103.45h-16.26v57.79h-24.06v-57.64h-11.37v-20.53h11.27c0-4.24-.2-8.27.06-12.26.24-3.54.56-7.17,1.61-10.53,2.37-7.52,7.68-12.29,15.42-13.93,8.22-1.75,16.58-.45,24.99-.8v19.92h-10.34c-6.45,0-7.6,1.14-7.6,7.6v9.98h18.37c-.71,6.9-1.39,13.53-2.09,20.4Z"/>
</svg>