<?xml version="1.0" encoding="UTF-8"?>
<svg id="Layer_1" xmlns="http://www.w3.org/2000/svg" viewBox="0 0 200 200">
  <path d="M165.74,24.83C149.96,10.63,131.2,2.77,110.12.47c-1.28-.14-2.55-.31-3.83-.47h-12.48c-3.59.5-7.19.89-10.76,1.51-23.1,4.03-42.42,14.95-57.93,32.51C11.02,49.99,3.02,68.72.72,89.91c-.14,1.28-.32,2.56-.48,3.84v12.5c.51,3.73.89,7.48,1.56,11.17,4.42,24.4,16.3,44.46,35.38,60.18,14.37,11.84,30.91,18.87,49.32,21.49,2.43.35,4.88.61,7.31.91h12.48c3.72-.51,7.46-.88,11.15-1.55,24.35-4.44,44.4-16.33,60.07-35.47,12.6-15.4,20.08-33.12,21.8-52.95,2.92-33.87-8.3-62.46-33.57-85.2ZM156.94,124.32c-.08,5.17-1.07,10.23-3.31,14.94-5.04,10.57-13.72,16.23-25.09,17.28-9.49.88-19.06.82-28.54,1.18-9.49-.35-18.93-.36-28.3-1.14-15.6-1.31-26.66-12.59-28.18-28.22-.4-4.07-.69-8.18-.69-12.27.02-13.54.11-27.08.34-40.61.09-5.72,1.3-11.26,4.06-16.33,5.25-9.63,13.66-14.94,24.32-15.66,12.42-.84,24.92-.81,37.38-.82,7.26,0,14.6.1,21.76,1.15,14.58,2.13,24.41,12.93,25.87,27.61.42,4.2.71,8.44.71,12.66-.01,13.41-.12,26.82-.33,40.23Z"/>
  <path d="M146.36,74.1c-.33-12.31-8.15-20.17-20.4-20.5-17.32-.46-34.67-.45-51.99.01-11.97.32-19.56,8.27-20.28,20.28-.52,8.63-.56,17.29-.81,26.11.25,8.69.26,17.55.84,26.37.56,8.44,4.26,15.26,12.59,18.29,3.65,1.33,7.72,2,11.61,2.06,14.74.24,29.48.2,44.22.02,3.59-.04,7.31-.59,10.71-1.71,8.82-2.91,13.24-9.78,13.47-18.64.44-17.42.5-34.87.04-52.29ZM99.99,129.46c-16.25-.05-29.32-13.16-29.35-29.42-.03-16.34,13.17-29.55,29.47-29.5,16.25.04,29.31,13.14,29.35,29.42.03,16.33-13.18,29.55-29.47,29.5ZM130.53,76.2c-3.77-.04-6.74-3.07-6.73-6.87,0-3.86,3.08-6.89,6.95-6.85,3.75.05,6.75,3.1,6.74,6.88,0,3.85-3.09,6.88-6.96,6.84Z"/>
  <path d="M119.15,100.14c-.06,10.51-8.68,19.04-19.19,18.99-10.49-.04-19.03-8.65-19.01-19.17.02-10.6,8.69-19.18,19.29-19.1,10.49.09,18.97,8.74,18.91,19.28Z"/>
</svg>